<?xml version="1.0" standalone="no"?>
<!DOCTYPE svg PUBLIC "-//W3C//DTD SVG 20010904//EN"
 "http://www.w3.org/TR/2001/REC-SVG-20010904/DTD/svg10.dtd">
<svg version="1.0" xmlns="http://www.w3.org/2000/svg"
 width="169.000000pt" height="169.000000pt" viewBox="0 0 169.000000 169.000000"
 preserveAspectRatio="xMidYMid meet">
<metadata>
Created by potrace 1.14, written by Peter Selinger 2001-2017
</metadata>
<g transform="translate(0.000000,169.000000) scale(0.100000,-0.100000)"
fill="#000000" stroke="none">
<path d="M1186 1408 c-8 -24 -4 -53 11 -101 15 -48 11 -97 -7 -97 -6 0 -19 -9
-30 -20 -24 -24 -41 -19 -58 19 -24 55 -82 100 -82 65 0 -10 -6 -14 -15 -11
-8 4 -17 1 -21 -5 -5 -7 -2 -8 6 -3 9 5 11 4 6 -3 -4 -7 -13 -12 -19 -12 -7 0
-18 -9 -25 -20 -7 -11 -18 -20 -26 -20 -7 0 -16 -12 -19 -27 -9 -37 -27 -62
-34 -46 -3 10 -10 10 -24 2 -15 -7 -24 -7 -34 1 -11 10 -13 8 -10 -8 5 -27
-32 -65 -57 -59 -14 4 -16 2 -10 -6 35 -45 2 -99 -62 -99 -43 0 -55 12 -81 77
-21 51 -45 70 -95 77 -27 3 -33 -16 -19 -58 4 -12 11 -41 14 -64 3 -23 26 -84
51 -135 24 -51 44 -95 44 -99 0 -3 17 -41 37 -84 31 -64 38 -88 38 -140 0 -53
3 -65 20 -75 11 -6 25 -15 30 -21 17 -18 35 -65 26 -70 -7 -4 -7 -35 -2 -134
1 -15 12 -29 32 -40 17 -9 40 -25 51 -34 12 -10 33 -19 47 -20 82 -4 120 7
194 59 35 25 37 30 38 82 1 31 1 60 0 65 -1 4 3 22 8 40 15 47 22 85 27 151 3
33 9 73 14 89 6 16 10 38 10 50 0 12 14 40 30 64 28 42 91 165 126 246 11 27
17 70 18 135 l1 96 -47 80 c-74 126 -92 146 -102 113z"/>
<path d="M630 1175 c7 -8 17 -12 22 -9 6 4 5 10 -3 15 -22 14 -33 10 -19 -6z"/>
<path d="M766 1167 c-16 -12 -16 -13 2 -14 10 -1 19 5 19 13 0 17 1 17 -21 1z"/>
<path d="M213 1146 c0 -8 6 -12 14 -9 7 3 10 9 7 14 -8 14 -21 11 -21 -5z"/>
<path d="M398 684 c-5 -4 -8 -16 -8 -28 0 -14 3 -17 11 -9 6 6 9 19 7 28 -1 9
-6 13 -10 9z"/>
<path d="M1254 609 c-8 -14 -18 -86 -11 -79 7 6 26 90 22 90 -2 0 -7 -5 -11
-11z"/>
</g>
</svg>
